<svg width="42" height="59" viewBox="0 0 42 59" fill="none" xmlns="http://www.w3.org/2000/svg">
<path d="M11.1691 11.6686C11.1862 9.93023 11.2034 8.19767 11.2205 6.4593C14.4295 6.43023 17.6384 6.40698 20.8473 6.37791C20.8759 4.58721 20.9045 2.79651 20.9331 1C27.4997 1.00581 34.0662 1.01744 40.6328 1.02326V47.4477H31.4579C31.4064 49.2442 31.355 51.0465 31.3035 52.843C27.963 52.8372 24.6225 52.8256 21.282 52.8198C21.2534 54.5465 21.2191 56.2733 21.1905 58H0.632812C0.792973 42.6105 0.947413 27.0756 1.10757 11.6919C4.4595 11.6337 7.81714 11.7209 11.1691 11.6628V11.6686ZM19.8063 56.7674C19.8063 51.8023 19.8177 46.9942 19.7891 42.1861C19.7891 41.7267 19.5088 41.2733 19.3601 40.814C18.422 37.8605 17.7757 34.7733 16.4772 31.9942C14.7955 28.4012 12.8851 24.8372 10.5227 21.6919C8.91538 19.5523 2.85217 21.5872 2.60621 24.2674C2.28589 27.75 2.52613 31.2849 2.52613 34.7965C3.75594 33.2616 4.30506 31.5465 5.16878 30.0174C5.60922 29.2442 6.65026 28.3314 7.38242 28.3547C8.15462 28.3837 9.08126 29.3372 9.5789 30.1221C10.1223 30.9709 10.2253 32.0988 10.5627 33.0872C11.5008 35.8023 12.7592 38.4419 13.3484 41.2267C14.4466 46.407 15.1559 51.6686 16.0082 56.7733H19.8063V56.7674ZM19.526 38.2849C19.6347 38.3198 19.7376 38.3547 19.8463 38.3954C19.8463 30.3314 19.8692 22.2733 19.7834 14.2093C19.7834 13.7558 18.8682 12.936 18.3648 12.9244C13.6115 12.8256 8.85246 12.8256 4.09342 12.9244C3.55574 12.936 2.60621 13.657 2.57761 14.093C2.42889 16.5174 2.50897 18.9593 2.50897 21.564C10.0479 18.436 11.661 18.8081 15.2474 25.9477C17.1808 29.7965 18.1303 34.157 19.526 38.2849ZM12.6734 11.4709C13.3255 11.5581 13.6916 11.4535 14.0577 11.4709C20.9217 11.75 20.8988 11.75 21.0647 18.6744C21.0876 19.5233 21.2935 20.8953 21.854 21.314C24.8056 23.5058 26.3557 26.5581 27.5626 29.9186C27.8886 30.8314 28.5464 31.6221 29.0555 32.4709C29.21 32.3488 29.3644 32.2267 29.5188 32.0988V7.7093H12.6734V11.4767V11.4709ZM2.74921 44.7558C3.10957 44.5 3.36698 44.3721 3.55574 44.1744C6.55874 41.0814 7.82858 41.3488 9.07554 45.5988C9.85346 48.2558 10.2424 51.0349 10.9002 53.7326C11.1633 54.8081 11.6781 55.8256 12.1129 56.9593C13.0738 56.8721 13.8861 56.7965 14.6811 56.7209C14.2693 53.7267 14.1206 50.8721 13.4456 48.1454C11.9985 42.3198 11.4322 36.2326 8.57218 30.8198C8.32622 30.3488 7.97158 29.7267 7.55974 29.6221C7.19938 29.5291 6.4043 29.9767 6.27846 30.3488C4.7169 34.9767 1.15905 39.0814 2.75493 44.75L2.74921 44.7558ZM22.5004 23.1628C22.4032 23.0698 22.14 22.8198 21.7682 22.7907C21.4708 22.7674 21.2191 22.8953 21.0704 22.9942C21.0704 27.4767 21.059 31.9593 21.0933 36.4419C21.0933 36.7791 21.3621 37.1512 21.5909 37.436C23.5758 39.9244 25.8066 42.1919 26.4415 45.6105C26.6417 46.6802 28.1346 47.5058 29.0326 48.4419C29.2729 48.2849 29.5188 48.1279 29.7591 47.9709C29.7591 44.7209 29.7362 41.4651 29.7648 38.2151C29.7877 36 30.1366 33.7267 27.4768 32.5814C26.676 32.2384 26.6588 31.25 26.5273 30.8721C26.5273 30.8721 24.4681 25.0407 22.4947 23.1628H22.5004ZM38.7166 45.843C39.0427 45.8488 39.3687 45.8605 39.6947 45.8663C39.6947 41.1686 39.1056 36.3663 39.8377 31.7907C40.8444 25.4826 35.8623 22.4128 33.6887 17.8605C33.4714 17.407 32.2644 16.9709 31.8755 17.186C31.3778 17.4651 31.0232 18.4012 30.9889 19.0756C30.8802 21.1919 31.1147 23.3372 30.9088 25.4419C30.5885 28.6453 32.3617 30.8721 34.4094 32.5872C37.4353 35.1221 38.1732 38.3779 38.4592 41.9767C38.5622 43.2616 38.6365 44.5523 38.7223 45.843H38.7166ZM39.7005 23.3837C39.7005 21.1919 39.7462 19.314 39.6833 17.4419C39.6547 16.5058 39.7119 15.3837 39.2428 14.686C37.4754 12.0465 35.1359 9.73837 33.6944 6.94767C31.0289 1.76744 30.1252 1.75 22.5404 2.6686V6.34302C24.634 6.34302 26.6074 6.44186 28.5693 6.31395C30.4741 6.19186 31.0747 6.98837 30.9717 8.84302C30.8516 11.0465 30.9431 13.2674 30.9431 15.6919C36.6174 14.8663 35.5706 21.6512 39.7005 23.3837ZM1.94269 56.7267H10.374C9.56746 53.0814 8.88678 49.6221 8.00018 46.2209C7.74278 45.2326 6.90766 44.4012 6.34138 43.5C5.50626 44.3663 4.18494 45.1046 3.92754 46.1163C3.08098 49.4942 2.61193 52.9767 1.94841 56.7267H1.94269ZM37.1665 46.1163C38.0645 39.7733 36.2398 34.7442 31.1948 31.1512V46.1163H37.1665ZM29.4445 51.5116C29.6104 51.2849 29.7762 51.0523 29.9421 50.8256C29.2614 50.2035 28.535 49.6279 27.9172 48.9477C26.9334 47.8547 25.8638 46.7907 25.1202 45.5349C23.8904 43.4477 22.8894 41.2209 21.7911 39.0581C21.6195 39.1686 21.4422 39.2791 21.2706 39.3895V51.5116H29.4445ZM38.9683 12.9826C39.1456 12.9012 39.3172 12.8256 39.4945 12.7442V2.38372H32.3502C34.6554 6.06977 36.8118 9.52326 38.974 12.9767L38.9683 12.9826Z" fill="#FBFCFE" stroke="#FBFCFE"/>
</svg>
