<svg width="54" height="55" viewBox="0 0 54 55" fill="none" xmlns="http://www.w3.org/2000/svg">
<path d="M33.559 54C32.6322 53.5598 31.3842 53.3636 30.8419 52.6317C28.8988 50.0169 26.3712 50.3723 23.9543 51.1997C21.1213 52.1702 18.5148 51.1678 15.8398 51.1042C12.5803 51.0246 10.3581 49.7889 7.7463 48.4046C6.0086 47.4818 5.08183 46.7499 5.80324 44.8989C6.58257 42.91 6.02966 41.2924 5.30826 39.3777C4.21298 36.4766 3.85491 33.2944 3.05978 30.266C2.79123 29.2477 2.31731 28.1658 1.62223 27.4073C0.374252 26.0443 0.23734 25.1055 1.6117 23.6205C2.72804 22.4113 3.38099 20.6876 3.98129 19.0912C4.40781 17.9615 4.5184 16.6727 4.56052 15.4422C4.72903 10.9659 8.5467 8.85505 10.7267 5.68875C10.9058 5.43418 11.5745 5.3175 11.9326 5.42357C14.7076 6.23503 16.2452 4.7447 17.4089 2.52776C18.2778 0.873009 19.4205 0.655558 21.116 1.4299C22.2429 1.94435 23.5962 2.03982 24.8652 2.14059C27.4771 2.34743 30.231 1.98148 32.6954 2.68157C36.055 3.63092 39.4461 4.77122 42.1738 7.30638C43.1585 8.22391 44.6434 8.79671 45.9914 9.0619C47.5975 9.38012 48.4874 9.82032 47.8818 11.6236C47.7186 12.1168 47.3763 12.7427 47.5395 13.1245C49.0192 16.5984 50.6411 20.0087 52.1102 23.4826C52.4683 24.3312 52.8632 25.8534 52.4683 26.214C50.5831 27.943 51.0465 30.2395 50.5094 32.3026C49.8407 34.8908 48.4295 37.3252 48.0345 39.9346C47.3816 44.2624 44.1115 46.4741 41.4945 49.2426C40.9416 49.826 40.0517 50.1071 39.2881 50.4571C37.3293 51.3535 35.3546 52.2127 33.3905 53.0878C33.4484 53.3901 33.5063 53.6924 33.5643 53.9947L33.559 54ZM32.3057 52.5786C33.4484 51.852 34.1277 51.0724 34.8754 51.0034C39.2618 50.595 41.2891 46.246 45.1068 44.9042C45.4122 44.7981 45.4859 44.0079 45.6544 43.5305C46.202 41.9978 46.7444 40.465 47.2815 38.9322C47.9977 36.8903 48.8244 34.8802 49.3878 32.8012C50.0829 30.2077 50.5568 27.5558 51.1308 24.8987C50.5305 22.9894 49.8302 20.7406 49.114 18.4971C48.9297 17.9137 48.8244 17.2455 48.4663 16.7841C46.9972 14.9013 45.5333 13.0503 46.5707 11.2894C44.3748 9.87866 42.6319 8.60578 40.752 7.58747C38.1823 6.1926 35.6179 4.59619 32.8429 3.83777C30.289 3.13768 27.4613 3.48773 24.7652 3.25967C23.4224 3.14829 22.0007 3.0157 20.7843 2.49063C19.531 1.94966 18.8465 2.11407 18.2304 3.27027C16.9087 5.74709 15.0499 7.23743 12.0484 6.59568C11.7535 6.53204 11.2322 6.64342 11.1006 6.85026C9.17858 9.86275 5.75585 11.8251 5.50836 16.0362C5.30299 19.5048 4.87647 23.1326 1.21151 25.5617C4.14979 27.296 4.34989 29.7993 4.17612 32.5678C4.1024 33.7346 4.66584 34.9704 5.05024 36.1372C6.08759 39.2982 8.70993 42.1728 6.70895 45.8588C6.67209 45.9278 6.67209 46.0869 6.70895 46.1134C8.75206 47.4181 10.7056 48.9191 12.8857 49.9268C14.0441 50.4624 15.5975 50.0806 16.9666 50.2079C18.5095 50.3458 20.1787 51.0777 21.5584 50.6958C25.5603 49.582 29.4043 48.3357 32.2952 52.5945L32.3057 52.5786Z" fill="#FBFCFE" stroke="#FBFCFE"/>
<path d="M46.6328 26.9919C46.6539 37.9815 37.527 47.0892 26.5799 46.9993C15.5165 46.9095 6.60115 37.9128 6.6329 26.8809C6.66464 16.05 15.6699 7.06911 26.5693 7.00039C37.5429 6.93167 46.6116 15.9654 46.6328 26.9919ZM7.73871 26.8545C7.70697 37.3472 16.1461 45.8681 26.6275 45.9263C36.8762 45.9844 45.4529 37.4793 45.5746 27.1452C45.6963 16.7583 37.072 8.08401 26.654 8.09987C16.2572 8.11573 7.77046 16.531 7.73871 26.8492V26.8545Z" fill="#FBFCFE" stroke="#FBFCFE"/>
<path d="M40.4428 27.4524C39.6928 22.2654 37.7762 17.874 33.292 15.0736C30.5785 13.3805 27.6464 12.9182 24.5371 13.2515C18.9852 13.8481 13.8864 18.6803 12.949 24.3671C12.2146 28.8391 13.1313 32.8866 16.0218 36.3965C18.7821 39.7451 22.5268 41.0567 26.6256 41.6479C22.6882 43.0562 16.9124 40.0891 13.9646 35.4343C10.4282 29.8443 10.9595 22.3031 15.251 17.229C19.5789 12.1066 26.6256 10.5585 32.5472 13.4288C37.9272 16.0357 41.5417 22.1902 40.4324 27.4524H40.4428Z" fill="#FBFCFE" stroke="#FBFCFE"/>
<path d="M17.6991 26.6324C20.6143 34.3449 23.3307 36.5679 28.4338 35.7852C32.2126 35.2007 35.243 31.9393 35.4995 28.177C35.8449 23.0945 33.5002 20.4802 26.7694 18.4399C28.7897 17.3545 31.752 18.3251 34.0654 20.8298C37.1272 24.1486 37.4884 29.1267 34.9447 32.8317C32.4586 36.4426 27.7063 37.9403 23.6238 36.3957C19.5885 34.8668 17.1966 31.1827 17.6991 26.6377V26.6324Z" fill="#FBFCFE" stroke="#FBFCFE"/>
<path d="M30.6328 27.4732C30.6328 29.4291 28.7931 31.0241 26.5587 30.9997C24.3299 30.9753 22.5679 29.3413 22.6346 27.3659C22.7013 25.4343 24.3354 24.0247 26.542 24.0003C28.8431 23.9759 30.6328 25.4929 30.6328 27.4781V27.4732ZM29.9103 27.9756L29.8991 26.8781C28.8153 26.2538 27.6592 25.0685 26.6643 25.166C25.6249 25.2685 24.1631 26.4879 23.9186 27.4244C23.5128 28.9755 24.8857 30.1608 26.6976 29.8827C27.8593 29.7023 28.8431 28.6438 29.9047 27.9805L29.9103 27.9756Z" fill="#FBFCFE" stroke="#FBFCFE"/>
</svg>
