<svg width="56" height="42" viewBox="0 0 56 42" fill="none" xmlns="http://www.w3.org/2000/svg">
<path d="M1 1V41.2231H27.8154V1H1Z" stroke="#FBFCFE" stroke-width="1.5" stroke-miterlimit="10"/>
<path d="M27.8125 1V41.2231H54.6279V1H27.8125Z" stroke="#FBFCFE" stroke-width="1.5" stroke-miterlimit="10"/>
<path d="M50.4785 5.78833H32.6016V10.1664H50.4785V5.78833Z" stroke="#FBFCFE" stroke-width="1.5" stroke-miterlimit="10"/>
<path d="M50.4785 10.1663H32.6016V14.5443H50.4785V10.1663Z" stroke="#FBFCFE" stroke-width="1.5" stroke-miterlimit="10"/>
<path d="M50.4785 14.5447H32.6016V18.9227H50.4785V14.5447Z" stroke="#FBFCFE" stroke-width="1.5" stroke-miterlimit="10"/>
<path d="M50.4785 18.9226H32.6016V23.3006H50.4785V18.9226Z" stroke="#FBFCFE" stroke-width="1.5" stroke-miterlimit="10"/>
<path d="M50.4785 23.3005H32.6016V27.6786H50.4785V23.3005Z" stroke="#FBFCFE" stroke-width="1.5" stroke-miterlimit="10"/>
<path d="M50.4785 27.6785H32.6016V32.0565H50.4785V27.6785Z" stroke="#FBFCFE" stroke-width="1.5" stroke-miterlimit="10"/>
<path d="M50.4785 32.0564H32.6016V36.4344H50.4785V32.0564Z" stroke="#FBFCFE" stroke-width="1.5" stroke-miterlimit="10"/>
<path d="M23.666 5.78833H5.78906V10.1664H23.666V5.78833Z" stroke="#FBFCFE" stroke-width="1.5" stroke-miterlimit="10"/>
<path d="M23.666 10.1663H5.78906V14.5443H23.666V10.1663Z" stroke="#FBFCFE" stroke-width="1.5" stroke-miterlimit="10"/>
<path d="M23.666 14.5447H5.78906V18.9227H23.666V14.5447Z" stroke="#FBFCFE" stroke-width="1.5" stroke-miterlimit="10"/>
<path d="M23.666 18.9226H5.78906V23.3006H23.666V18.9226Z" stroke="#FBFCFE" stroke-width="1.5" stroke-miterlimit="10"/>
<path d="M23.666 23.3005H5.78906V27.6786H23.666V23.3005Z" stroke="#FBFCFE" stroke-width="1.5" stroke-miterlimit="10"/>
<path d="M23.666 27.6785H5.78906V32.0565H23.666V27.6785Z" stroke="#FBFCFE" stroke-width="1.5" stroke-miterlimit="10"/>
<path d="M23.666 32.0564H5.78906V36.4344H23.666V32.0564Z" stroke="#FBFCFE" stroke-width="1.5" stroke-miterlimit="10"/>
</svg>
