<svg width="53" height="57" viewBox="0 0 53 57" fill="none" xmlns="http://www.w3.org/2000/svg">
<path d="M26.6289 55.998H26.6266L26.6318 55.7862L26.6371 55.998H26.6289ZM26.6297 42.9664L26.5722 42.9184L25.6228 42.1255L25.293 41.8501L24.8663 41.8998C21.0877 42.3391 17.6541 42.7385 13.9608 43.1752L14.6156 40.9948L14.6194 40.9822L14.6229 40.9695C14.9042 39.9345 14.507 38.8321 13.7156 38.2012L2.47424 28.9124L3.60633 28.3723C3.95205 28.2409 4.30422 28.05 4.57251 27.7373C4.87706 27.3823 4.98502 26.9759 4.995 26.5962C5.00406 26.2515 4.93295 25.9027 4.85987 25.6021C4.81636 25.4232 4.7582 25.2095 4.6986 24.9905C4.66071 24.8513 4.62223 24.7099 4.58656 24.5739L4.58659 24.5739L4.58474 24.5671L3.11257 19.1136L8.74723 20.319L8.7769 20.3254L8.8069 20.3299C10.074 20.5215 10.9748 19.6881 11.2032 18.8191L11.6328 17.2921L16.121 22.407C16.4177 22.7801 16.8001 23.0786 17.223 23.2555C17.649 23.4335 18.1886 23.5142 18.7169 23.3125C19.2799 23.0977 19.6547 22.6294 19.8235 22.0587C19.9825 21.5213 19.9658 20.8904 19.8223 20.2009L17.7557 9.03868L19.1929 9.79794C19.7299 10.1005 20.3901 10.3496 21.0756 10.2984C21.8462 10.2409 22.4949 9.81507 22.9019 9.07382L22.902 9.07384L22.9068 9.06478L26.6286 2.11806L30.3488 9.06652L30.3533 9.07479L30.3578 9.08298C30.7694 9.81818 31.416 10.2429 32.1869 10.2995C32.8728 10.3498 33.5325 10.0996 34.0697 9.79856L35.5081 9.03865L33.4417 20.2019C33.2968 20.8905 33.2785 21.5207 33.4358 22.0579C33.6029 22.629 33.9767 23.0988 34.5407 23.3142C35.0695 23.5162 35.6094 23.4346 36.0349 23.2563C36.4576 23.0791 36.8399 22.7803 37.1368 22.4071L41.6266 17.2902L42.0574 18.8148C42.2825 19.701 43.2012 20.521 44.4576 20.3275L44.4863 20.3231L44.5148 20.317L50.1433 19.1119L48.6711 24.5672L48.671 24.5671L48.6684 24.5771C48.6328 24.7146 48.5942 24.8584 48.5561 24.9999C48.4979 25.2162 48.4411 25.4273 48.3988 25.603C48.3267 25.9028 48.2564 26.2511 48.2661 26.5954C48.2768 26.9747 48.3854 27.3803 48.6899 27.7345C48.958 28.0463 49.3096 28.2368 49.6549 28.3681L50.7852 28.9091L39.5376 38.2034C38.7542 38.8358 38.3636 39.937 38.6477 40.9703L38.6505 40.9806L38.6536 40.9909L39.3044 43.1736C35.6099 42.7363 32.1754 42.3355 28.3951 41.8977L27.9686 41.8483L27.639 42.1235L26.6896 42.9164L26.6297 42.9664Z" stroke="#FBFCFE" stroke-width="2"/>
</svg>
